<svg xmlns="http://www.w3.org/2000/svg" viewBox="0 0 210 21.998">
  <defs>
    <style>
      .cls-1 {
        fill: #1e397b;
      }
    </style>
  </defs>
  <g id="logo" transform="translate(-0.04 -0.03)">
    <path class="cls-1" d="M40.535,180.673c.041.01.212.041.212.151s-.116.195-.352.353v1.586h.1l.3-.677c.02-.041.08-.13.151-.13.05,0,.13.07.181.111l.627.6a7.239,7.239,0,0,0,.09-1.211,5.384,5.384,0,0,0-.039-.718l1.464.545a.161.161,0,0,1,.111.151c0,.132-.132.182-.384.273a7.514,7.514,0,0,1-.373.9h.949v-.918a4.346,4.346,0,0,0-.192-1.312l1.524.322c.14.031.223.072.223.151,0,.132-.1.2-.374.421,0,.192-.01,1.13-.01,1.342h.515l.444-.757c.02-.039.081-.13.151-.13a.413.413,0,0,1,.182.1l.928.767a.23.23,0,0,1,.1.151c0,.111-.091.111-.151.111H44.74v1.766h.715l.435-.827c.029-.06.091-.132.151-.132a.4.4,0,0,1,.181.1l.9.841c.031.031.1.091.1.161,0,.1-.1.1-.151.1H44.91a5.394,5.394,0,0,0,2.312,2.261v.081c-.313.14-.646.515-.726,1.382a5.869,5.869,0,0,1-1.757-3.665c0,.7.01,3.17.01,3.8,0,.514,0,.988-.7.988-.495,0-.561-.222-.561-.524,0-.02.031-.606.031-.666.039-.908.039-1.211.05-2.131a7.182,7.182,0,0,1-2.847,2.453l-.041-.08a7.515,7.515,0,0,0,2.03-3.906h-.254c-.161,0-.561.01-.777.031a.875.875,0,0,1,.031.212.627.627,0,0,1-.6.666c-.343,0-.374-.212-.421-.474a2.6,2.6,0,0,0-.3-.949v4.633c0,.2,0,.666-.747.666-.421,0-.444-.181-.444-.606,0-.07.01-.4.01-.495.021-.666.031-1.252.031-2.7a6.87,6.87,0,0,1-1.323,1.483l-.07-.081A10.549,10.549,0,0,0,39.1,183a4.856,4.856,0,0,0-1.05.071l-.157-.374c.421.041.918.062,1.343.062v-.112a6.955,6.955,0,0,0-.2-2.243Zm-.14,3.261a2.9,2.9,0,0,1,1.122.646c.262.02.841.029,1.122.029h.939v-1.768H42.5a7.121,7.121,0,0,1-1.05,1.464l-.09-.029A7.414,7.414,0,0,0,41.7,183H40.395Z" transform="translate(-37.81 -180.012)"/>
    <path class="cls-1" d="M118.5,183.1h-2.989a10.555,10.555,0,0,0,1.211,4.109c.122.223.4.7.737.7.3,0,.636-.561,1.04-1.252l.08.041a11.072,11.072,0,0,0-.383,1.776c0,.14.029.2.161.444a.66.66,0,0,1,.121.374.579.579,0,0,1-.575.594c-.737,0-2.686-1.464-3.352-4.734a.18.18,0,0,1-.07.011H112.74v2.351c1.8-.212,2-.231,2.019-.231l.031.08a31.961,31.961,0,0,1-4.078,1.867c-.021.091-.081.273-.2.273-.091,0-.163-.122-.2-.2l-.788-1.542a14.071,14.071,0,0,0,1.939-.13v-2.46h-.384a5.865,5.865,0,0,0-1.091.07l-.161-.373c.627.06,1.333.06,1.434.06h1.594l.454-.788c.031-.06.081-.132.151-.132s.132.072.182.112l.858.757c-.091-.495-.212-1.242-.293-1.778h-3.422a5.745,5.745,0,0,0-1.091.072l-.171-.374c.625.062,1.343.062,1.444.062h3.2c-.05-.343-.272-2.081-.293-2.2l1.667.313c.07.01.241.051.241.151,0,.161-.3.262-.4.293.011.313.031.7.112,1.444h1.351l.324-.536a.592.592,0,0,1-.343-.414,2.456,2.456,0,0,0-.737-1.081l.05-.08c.949.091,1.879.181,1.879.938a.634.634,0,0,1-.182.435l.728.716c.07.072.1.1.1.161C118.656,183.091,118.56,183.1,118.5,183.1Z" transform="translate(-99.432 -180.261)"/>
    <path class="cls-1" d="M46.2,264.527a5.276,5.276,0,0,1-3.292-3.321,10.514,10.514,0,0,1-2.776,2.7c.421.041.848.051,1.272.051H42.82l.5-.737c.039-.051.09-.132.151-.132s.1.031.191.112l.858.736c.062.05.1.091.1.151,0,.1-.08.112-.151.112h-3.25a5.1,5.1,0,0,0-1.091.07l-.121-.28a8.085,8.085,0,0,1-2.1.9l-.05-.07a8.626,8.626,0,0,0,3.634-4.573l1.573.461c.2.06.243.122.243.182,0,.111-.07.13-.28.192a6.448,6.448,0,0,0,4.129,2.038v.081A1.642,1.642,0,0,0,46.2,264.527Zm.474,1.333h-4.27a11.447,11.447,0,0,1-1.413,2.13,32.206,32.206,0,0,0,3.352-.213,6.562,6.562,0,0,0-1.07-1.223l.029-.07c.475.091,3.049.687,3.049,2.243a.813.813,0,0,1-.808.787c-.374,0-.516-.28-.617-.545a5.046,5.046,0,0,0-.484-1.029,32.028,32.028,0,0,1-4.775,1.413c-.041.121-.1.313-.243.313-.07,0-.1-.08-.14-.151l-.819-1.615a16.124,16.124,0,0,0,1.978.091,11.88,11.88,0,0,0,.394-2.13H39.478a5.487,5.487,0,0,0-1.091.07l-.171-.373a13.824,13.824,0,0,0,1.444.06H44.9l.534-.757c.052-.06.091-.122.151-.122s.091.021.192.1l.959.757c.031.031.1.091.1.151C46.837,265.86,46.736,265.86,46.675,265.86Z" transform="translate(-37.819 -247.951)"/>
    <path class="cls-1" d="M112.428,267.148c-.293,0-.495-.324-.6-.495a4.991,4.991,0,0,0-.8-1.009l-.011.909c-.01.454.041,2.685.041,3.19,0,.273-.05.646-.9.646-.28,0-.421-.07-.421-.5,0-.464.031-2.776.031-3.3a8.934,8.934,0,0,1-1.7,1.141l-.05-.07a11.776,11.776,0,0,0,2.867-4.241h-1.262a4.761,4.761,0,0,0-1.091.072l-.161-.374c.686.062,1.342.062,1.394.062a7.8,7.8,0,0,0-.172-1.989l1.625.28c.1.02.2.039.2.151s-.252.252-.393.323v1.232h.01l.3-.365c.08-.1.091-.121.151-.121a.376.376,0,0,1,.181.091l.869.656a.244.244,0,0,1,.1.192c0,.181-.28.272-.526.342a13.234,13.234,0,0,1-1.089,1.4c.151,0,2,.031,2,1.161A.641.641,0,0,1,112.428,267.148Zm5.027,2.867H113a5.087,5.087,0,0,0-1.091.07l-.161-.373c.625.051,1.332.06,1.433.06h.92v-4.957h-.611a5.05,5.05,0,0,0-1.091.072l-.161-.374c.625.06,1.332.06,1.433.06h.421a11.134,11.134,0,0,0-.243-3.422l1.766.293c.07.01.212.031.212.14,0,.151-.293.313-.444.394v2.594h.394l.485-.817c.02-.041.07-.13.151-.13a.41.41,0,0,1,.181.111l.841.817c.091.081.1.122.1.151,0,.091-.08.111-.161.111H115.4v4.957h.341l.636-.93c.05-.07.091-.13.151-.13s.14.08.171.111l.817.928c.071.072.1.1.1.151C117.616,270,117.515,270.015,117.455,270.015Z" transform="translate(-98.151 -248.734)"/>
    <path class="cls-1" d="M223.27,190.8a16.233,16.233,0,0,1-8.29-7.553,19.246,19.246,0,0,1-10.721,8.212v-.186c4.589-3.365,7.381-8.164,7.791-10.66l3.861,1.437c.14.046.363.145.363.328s-.091.212-.773.447c2.545,2.492,6.2,3.81,9.61,4.562v.189A4.661,4.661,0,0,0,223.27,190.8Zm.795,10.748H207.943a12.891,12.891,0,0,0-2.453.145l-.386-.847c1.43.118,3.02.145,3.247.145h4.656v-4.78H209.6a11,11,0,0,0-2.452.166l-.365-.872c1.4.118,3,.145,3.224.145h3v-4.286h-2.089a11.19,11.19,0,0,0-2.476.164l-.363-.871c1.4.118,3.02.145,3.248.145h5.768l1.046-1.765c.045-.094.181-.306.341-.306.114,0,.227.071.408.235l2.113,1.79a.505.505,0,0,1,.227.353c0,.235-.2.259-.341.259H216v4.282h2.225l1.113-1.717c.114-.166.2-.306.341-.306.114,0,.273.145.432.259l2.271,1.718a.5.5,0,0,1,.227.353c0,.235-.2.259-.341.259H216v4.777h4.019l1.2-1.888c.14-.189.227-.306.341-.306s.227.094.408.258l2.2,1.888a.466.466,0,0,1,.227.353c.008.209-.179.257-.338.257Z" transform="translate(-180.89 -180.218)"/>
    <path class="cls-1" d="M391.783,182.732c-.069.048-.477.353-.726.541v9.337c0,1.9.067,4.985.067,6.912a1.722,1.722,0,0,1-1.953,1.952c-1.044,0-1.113-.581-1.067-1.552H375.617c0,.682-.022,1.6-1.748,1.6-1,0-1.158-.563-1.158-1.245,0-.235.022-.726.045-.964.091-.941.069-2.681.069-4.355s.022-9.125.022-10.63a23.209,23.209,0,0,0-.227-3.809l3.271,1.2h12.037l.908-1.341c.045-.07.272-.3.363-.3.182,0,.363.164.545.33l1.995,1.627c.14.118.25.212.25.377S391.852,182.662,391.783,182.732Zm-3.679-.446H375.636v17.079H388.1Zm-.659,13.969h-8.63a12.45,12.45,0,0,0-2.476.164l-.363-.871a29.737,29.737,0,0,0,3.247.145h.864v-5.271h-.75a12.437,12.437,0,0,0-2.452.164l-.365-.871a35.359,35.359,0,0,0,3.566.145v-4.024h-1.2a12.66,12.66,0,0,0-2.452.145l-.365-.846c1.068.094,2.158.145,3.224.145h4.474l.826-1.56c.045-.094.158-.306.317-.306.113,0,.182.048.432.258l1.839,1.553a.481.481,0,0,1,.216.35c0,.235-.2.258-.341.258h-4.218v4.021h.7l.772-1.317c.091-.145.227-.306.341-.306a.872.872,0,0,1,.432.235l1.59,1.365c.069.07.227.187.227.353,0,.145-.091.235-.341.235h-3.722v.775c1.863.166,3.77.894,3.77,2.323a1.194,1.194,0,0,1-.317.823l1.294,1.293a.606.606,0,0,1,.227.377C387.814,196.255,387.581,196.255,387.445,196.255Zm-3.293-2.234a6.809,6.809,0,0,0-1.318-2.116v3.786h1.822l.432-.705C384.607,194.914,384.4,194.538,384.152,194.021Z" transform="translate(-323.367 -179.754)"/>
    <path class="cls-1" d="M532.478,181.151a31.881,31.881,0,0,1-1.5,3.031l.521.187c.227.094.318.189.3.329-.023.212-.16.329-.614.682v12.851c0,.612,0,1.762-1.7,1.762-.841,0-.841-.47-.841-.751,0-.516.114-1.175.114-7.048v-4.487a16.5,16.5,0,0,1-2.243,2.631l-.159-.117a34.422,34.422,0,0,0,3.365-11.794l3.522,1.9c.09.046.227.164.227.281C533.451,181.1,532.682,181.151,532.478,181.151Zm14.535,10.507h-4.626a11.846,11.846,0,0,0,.545,1.974,8.652,8.652,0,0,0,.864-1.809l3.02,2.091c.114.093.227.145.227.3,0,.306-.8.235-1.136.212a16.113,16.113,0,0,1-1.682,1.481c.28.352.773.87,1.249.87.432,0,1.046-1.057,1.34-1.6l.182.071q-.225,1.13-.341,2.278c0,.235.408,1.223.408,1.434a1.126,1.126,0,0,1-1.18,1.057,5.648,5.648,0,0,1-4.157-2.538,15.752,15.752,0,0,1-4.206,1.45l-.09-.21a12.061,12.061,0,0,0,3.543-2.584,12.6,12.6,0,0,1-.908-3.008c-.477.258-2.044.846-2.725,1.08,0,3.008-.022,3.289-.28,3.994-.544,1.5-2.243,1.645-2.884,1.692a3.251,3.251,0,0,0-2.022-2.985v-.186c.726.046,1.5.093,2.2.093.251,0,.545-.07.545-.68,0-.094.046-.7.022-1.082a17.559,17.559,0,0,1-1.823.518c-.112.422-.227.587-.385.587-.14,0-.182-.071-.318-.424l-.908-2.4a28.059,28.059,0,0,0,3.429.07v-1.762h-.612a11.034,11.034,0,0,0-2.453.165l-.363-.87c1.318.117,2.772.145,3.429.145v-1.105c-1.2.165-2.066.212-2.929.258l-.011-.189a14.228,14.228,0,0,0,4.382-3.054l2.476,1.645c.14.094.272.212.272.329,0,.023,0,.258-.341.258a2.6,2.6,0,0,1-.454-.048,9.605,9.605,0,0,1-.981.306v1.6h2.413c-.091-.682-.341-2.938-.432-4.159l2.839.776c.114.023.363.145.363.376,0,.094,0,.187-.522.54.045.725.114,1.411.272,2.465h1.59l.614-.658c-.3-.189-.341-.4-.454-.846a3.289,3.289,0,0,0-1.362-2.091v-.189a8.729,8.729,0,0,1,2.952.8,1.309,1.309,0,0,1,.477,2.02l1.067.917c.091.094.227.212.227.352C547.376,191.63,547.171,191.658,547.013,191.658Zm-.023-4.816H534.818a12.1,12.1,0,0,0-2.453.165l-.363-.87c1.067.094,2.134.145,3.225.145h2.861v-1.819h-1.832a12.054,12.054,0,0,0-2.452.164l-.387-.87c1.091.094,2.158.145,3.248.145h1.43v-1.648h-2.26a12.408,12.408,0,0,0-2.476.165l-.363-.87c1.5.145,3.042.145,3.316.145a4.66,4.66,0,0,1-.454-1.41,4.243,4.243,0,0,0-1.273-1.809l.113-.164c1.523.093,3.839.634,3.839,2.232a1.4,1.4,0,0,1-.561,1.15H539.9a19.613,19.613,0,0,0,1.249-3.665l2.93,1.223c.227.093.363.145.363.281,0,.352-.613.352-1,.352a26.338,26.338,0,0,1-2.749,1.809h2.68l1.113-1.292c.14-.164.227-.281.341-.281a.9.9,0,0,1,.432.235l1.456,1.3c.091.094.227.212.227.352,0,.258-.227.258-.341.258h-5.9V183.9h1.7l.7-1.315c.045-.094.181-.306.341-.306.14,0,.272.145.43.26l1.59,1.315a.53.53,0,0,1,.227.352c0,.258-.2.258-.341.258h-.726a2.233,2.233,0,0,1,.409.258l2.067,1.5a.6.6,0,0,1,.23.357c0,.231-.226.254-.339.254Zm-7.177,4.816h-2.476V193.3c.5-.043,1.861-.164,2.7-.334C539.973,192.617,539.928,192.265,539.814,191.658Zm.885-7.189v1.809h2.565l.981-1.5a.7.7,0,0,1,.341-.306Z" transform="translate(-454.467 -178)"/>
    <path class="cls-1" d="M707.866,186.982h-6.729a25.164,25.164,0,0,0,2.725,9.569c.272.518.908,1.646,1.658,1.646.682,0,1.43-1.293,2.338-2.916l.182.094a26.545,26.545,0,0,0-.864,4.138,1.95,1.95,0,0,0,.363,1.035,1.582,1.582,0,0,1,.273.871,1.377,1.377,0,0,1-.366.975,1.283,1.283,0,0,1-.929.411c-1.657,0-6.041-3.409-7.54-11.031a.433.433,0,0,1-.158.023H694.9v5.482c4.043-.493,4.5-.54,4.542-.54l.069.187a71.458,71.458,0,0,1-9.176,4.354c-.046.212-.182.636-.454.636-.2,0-.365-.283-.454-.47l-1.772-3.575a31.028,31.028,0,0,0,4.36-.3V191.8h-.862a12.759,12.759,0,0,0-2.453.164l-.363-.871c1.4.145,3,.145,3.225.145h3.589l1.022-1.835c.069-.145.182-.3.341-.3.14,0,.3.164.409.258l1.933,1.766c-.2-1.152-.477-2.893-.659-4.138h-7.7a12.625,12.625,0,0,0-2.453.164l-.386-.871c1.4.145,3.021.145,3.248.145h7.2c-.114-.8-.613-4.843-.659-5.127l3.747.726c.16.025.545.118.545.353,0,.377-.682.612-.908.682.022.726.069,1.623.25,3.363h3.044l.727-1.247a1.367,1.367,0,0,1-.772-.964,5.731,5.731,0,0,0-1.659-2.515l.114-.189c2.135.212,4.224.424,4.224,2.187a1.5,1.5,0,0,1-.408,1.016l1.635,1.669c.16.165.227.235.227.377C708.206,186.958,708,186.982,707.866,186.982Z" transform="translate(-592.057 -180.812)"/>
    <path class="cls-1" d="M862.634,209.429c1.726-1.532,2.725-4.173,3.248-6.011a25.487,25.487,0,0,0,.749-6.693,24.7,24.7,0,0,0-4.179.495c-.022.848.024,5.093-.022,5.493-.022.377-.069.918-.841.918-1.046,0-1.542-1.107-1.542-2.027,0-.164.114-1.155.182-1.746.067-.541.09-1.555.113-2.145a14.064,14.064,0,0,0-2.523.92c-.5.282-.635.377-.953.377-.659,0-1.862-1.132-1.862-2.688a4.06,4.06,0,0,1,.294-1.673c.7,1.579,1.454,1.627,1.953,1.627.318,0,2.612-.284,3.112-.354-.091-3.795-.14-3.889-2.243-4.409a3.007,3.007,0,0,1,2.021-.848c.545,0,2.748.448,2.748,1.486a4.739,4.739,0,0,1-.182,1.061,7.8,7.8,0,0,0-.25,2.474c1.34-.166,2.362-.284,4.206-.4,0-4.336,0-4.479-2.158-4.947a4.144,4.144,0,0,1,2.182-.825c.227,0,3.02.189,3.02,1.627a9.064,9.064,0,0,1-.318,1.132,19.837,19.837,0,0,0-.341,2.875,13.039,13.039,0,0,0,2-.259,3.992,3.992,0,0,1,1.044-.189,5.6,5.6,0,0,1,2.431,1.132,1.063,1.063,0,0,1,.294.778c0,1.037-.749,1.037-1.022,1.037a14.157,14.157,0,0,1-2-.473,11.111,11.111,0,0,0-2.794-.447c-.2,5.138-.2,5.586-.817,7.1a10.441,10.441,0,0,1-5.451,5.775Z" transform="translate(-734.821 -187.871)"/>
    <path class="cls-1" d="M1026.42,234.259c1.294,0,10.447-.091,11.037-.25a6.652,6.652,0,0,1,.908-.251c1.091,0,2.93.387,2.93,1.727,0,.981-1,1.022-1.432,1-.227,0-1.18-.024-1.385-.046-.068,0-3.044-.045-4.95-.045-.069,0-5.564.272-6.309.522a7.852,7.852,0,0,1-1.318.365c-.454,0-.561-.14-1.567-1.318a3.776,3.776,0,0,1-.635-1.823,4.813,4.813,0,0,1,.59-1.75C1024.694,233.531,1024.988,234.259,1026.42,234.259Z" transform="translate(-878.799 -224.398)"/>
    <path class="cls-1" d="M1203.158,186.153c0-.5-.387-.685-1.022-1.02a4.985,4.985,0,0,1,1.158-.188,3.951,3.951,0,0,1,2.748,1.457c.795.8.886,1.062.886,1.393,0,.567-.25.729-1.432,1.134-.432.146-2.243.968-2.612,1.109a25.79,25.79,0,0,1-5.859,1.77c0,.472-.069,2.477-.069,2.9,0,1.393.386,2.171,3.2,2.171a10.017,10.017,0,0,0,4.224-.826,1.9,1.9,0,0,1,.908-.306c.682,0,3.157.874,3.157,2.076a1.249,1.249,0,0,1-.862,1.086c-1.068.472-5.769.567-6.564.567-6.542,0-6.542-2.477-6.542-6.633,0-.874,0-7.012-.158-7.6a2.1,2.1,0,0,0-1.863-1.558,2.734,2.734,0,0,1,2.044-1.109,7.085,7.085,0,0,1,2.975,1.322,1.055,1.055,0,0,1,.523.9,6.963,6.963,0,0,1-.477,1.132c-.3.874-.432,1.842-.5,5.246C1200.364,189.411,1203.158,186.838,1203.158,186.153Zm1.158-4.508c3.111,0,3.815,1.511,3.815,2.194,0,.354-.158.969-.795.969-.5,0-.749-.284-1.226-.9a5.955,5.955,0,0,0-2.636-2.243c.276-.023.5-.023.837-.023Zm2.589-1.534c.294,0,3.451.047,3.451,2.148,0,.59-.3.944-.841.944-.341,0-.614-.165-1.431-1.2a6.3,6.3,0,0,0-2.5-1.724A5.756,5.756,0,0,1,1206.905,180.11Z" transform="translate(-1021.717 -179.788)"/>
    <path class="cls-1" d="M1340,214.918c4.226-2.277,7.018-6.192,8.271-7.948a27.15,27.15,0,0,0,3.771-6.762c-.568.19-3.112.879-3.611,1.068a11.307,11.307,0,0,0-2.544,1.186.851.851,0,0,1-.544.19c-.75,0-2.022-1.661-2.022-3.3a3.154,3.154,0,0,1,.227-1.424,2.52,2.52,0,0,0,2.474,1.757,29.731,29.731,0,0,0,6.5-1.068,4.926,4.926,0,0,0,.477-.5c.182-.166.2-.189.363-.189a7.071,7.071,0,0,1,1.682,1.21c.864.688.953.784.953,1.114,0,.286-.067.333-.561.618-.521.308-.561.426-1.225,1.684a27.262,27.262,0,0,1-2.794,4.436,18.418,18.418,0,0,1,5.927,3.347,3.229,3.229,0,0,1,1.271,2.443,1.8,1.8,0,0,1-1.635,1.97c-.5,0-.818-.261-1.135-.83a32.3,32.3,0,0,0-3.021-4.769,11.4,11.4,0,0,0-1.7-1.757c-1.884,2.443-5.518,6.383-11.015,7.687Z" transform="translate(-1148.573 -195.11)"/>
  </g>
</svg>
