<svg enable-background="new 0 0 174.5 41.5" viewBox="0 0 174.5 41.5" xmlns="http://www.w3.org/2000/svg"><g fill="#fff"><path d="m270.5 136.7h-20c-5.5 0-10-4.5-10-10v-20c0-5.5 4.5-10 10-10h20c5.5 0 10 4.5 10 10v20c0 5.5-4.4 10-10 10zm-18.9-31.9c-1.6 0-2.9 1.3-2.9 2.9v19.9c0 1 .3 1.5.9 1.5.5-.1.9-.3 1.2-.6l7.6-7.4 13 7.1c.3.2.7.3 1.1.4.2 0 .3-.1.4-.2.1-.2 0-.7-.3-1.3l-7.3-12.7 7.6-7.5c.6-.5.8-1.1.6-1.5s-.7-.6-1.5-.6z" transform="translate(-240.034 -95.727)"/><g enable-background="new" transform="translate(-29.5 -19)"><path d="m102.4 53h-4.1c-.8 0-1.3-.3-1.7-.9l-5.2-7.9c-.2-.3-.4-.5-.6-.6s-.6-.2-1-.2h-2v9.6h-4.6v-24.6h7.5c1.7 0 3.1.2 4.3.5s2.2.8 2.9 1.5c.8.6 1.3 1.4 1.7 2.2.4.9.5 1.8.5 2.9 0 .8-.1 1.6-.4 2.3-.2.7-.6 1.4-1.1 2s-1 1.1-1.7 1.6-1.4.8-2.3 1.1c.3.2.6.4.8.6s.5.5.7.8zm-11.8-12.9c.9 0 1.6-.1 2.3-.3.6-.2 1.2-.5 1.6-.9s.7-.8.9-1.4c.2-.5.3-1.1.3-1.7 0-1.2-.4-2.2-1.2-2.9s-2.1-1-3.8-1h-2.9v8.2z"/><path d="m118.7 35.6v17.4h-2.6c-.6 0-.9-.3-1.1-.8l-.3-1.4c-.7.7-1.5 1.3-2.4 1.8-.9.4-1.9.7-3 .7-1 0-1.8-.2-2.5-.5s-1.3-.8-1.8-1.4-.9-1.3-1.1-2.1c-.3-.8-.4-1.7-.4-2.7v-11h4.2v11.1c0 1.1.2 1.9.7 2.5s1.2.9 2.2.9c.7 0 1.4-.2 2-.5s1.2-.8 1.8-1.3v-12.7z"/><path d="m126.8 37.7c.4-.4.7-.7 1.1-1s.8-.6 1.2-.8.9-.4 1.4-.5 1-.2 1.6-.2c1 0 1.8.2 2.5.5s1.4.8 1.8 1.4c.5.6.9 1.3 1.1 2.1.3.8.4 1.7.4 2.7v11.1h-4.2v-11.1c0-1.1-.2-1.9-.7-2.5s-1.2-.9-2.2-.9c-.7 0-1.4.2-2 .5s-1.2.8-1.8 1.3v12.7h-4.2v-17.4h2.6c.5 0 .9.3 1.1.8z"/><path d="m166.8 35.6-5.5 17.4h-3.4c-.4 0-.7-.2-.8-.7l-3.1-10.1c-.1-.3-.2-.7-.3-1s-.2-.7-.2-1c-.1.3-.1.7-.2 1s-.2.7-.3 1l-3.2 10c-.1.5-.4.7-.9.7h-3.2l-5.5-17.4h3.3c.3 0 .6.1.8.2s.4.3.4.6l2.5 9.3c.1.5.2 1 .3 1.5s.2 1 .2 1.5c.1-.5.3-1 .4-1.5s.3-1 .5-1.5l2.9-9.4c.1-.2.2-.4.4-.6s.4-.2.7-.2h1.9c.3 0 .5.1.8.2s.3.3.4.6l2.8 9.4c.1.5.3 1 .4 1.5s.3 1 .4 1.5c.1-1 .4-2 .6-3l2.6-9.3c.1-.2.2-.4.4-.6s.4-.2.7-.2h3.2z"/><path d="m168.6 38c2-1.8 4.4-2.8 7.2-2.8 1 0 1.9.2 2.7.5s1.5.8 2 1.4c.6.6 1 1.3 1.3 2.1s.4 1.7.4 2.7v11h-1.9c-.4 0-.7-.1-.9-.2s-.4-.4-.5-.7l-.4-1.3c-.4.4-.9.7-1.3 1s-.9.6-1.3.8c-.5.2-.9.4-1.5.5s-1.1.2-1.7.2c-.7 0-1.4-.1-2-.3s-1.2-.5-1.6-.9c-.5-.4-.8-.9-1.1-1.5-.2-.6-.4-1.3-.4-2.1 0-.4.1-.9.2-1.3s.4-.9.7-1.2c.3-.4.8-.8 1.3-1.1.5-.4 1.2-.7 2-.9s1.7-.5 2.7-.6 2.2-.3 3.5-.3v-1c0-1.2-.2-2-.7-2.6s-1.2-.8-2.2-.8c-.7 0-1.2.1-1.7.2-.4.2-.8.3-1.2.5-.3.2-.6.4-.9.5-.3.2-.6.2-.9.2s-.5-.1-.7-.2c-.2-.2-.4-.3-.5-.5zm9.6 7.6c-1.2.1-2.2.2-3.1.3-.8.2-1.5.3-2 .6s-.9.5-1.1.8-.3.7-.3 1c0 .7.2 1.3.7 1.6.4.3 1 .5 1.7.5.9 0 1.6-.2 2.2-.5s1.2-.8 1.8-1.4v-2.9z"/><path d="m201.6 35.6-9.5 22.2c-.1.3-.3.5-.5.7s-.5.2-.9.2h-3.1l3.3-7-7.1-16.1h3.7c.3 0 .6.1.8.2.2.2.3.3.4.5l3.7 9c.1.3.2.6.3.9s.2.6.2.9c.1-.3.2-.6.3-.9s.2-.6.3-.9l3.5-9c.1-.2.2-.4.5-.6s.4-.2.7-.2h3.4z"/></g></g></svg>